HIERARCHY
ROOT pelvis
{
  OFFSET 0 100 0
  CHANNELS 6 Xposition Yposition Zposition Zrotation Xrotation Yrotation
  JOINT pelvis_right_femur
  {
    OFFSET -10.78128 -3.44521 -0.5502486
    CHANNELS 3 Zrotation Xrotation Yrotation
    JOINT right_femur_tibia
    {
      OFFSET -0.8047443 -44.0398 -0.1307829
      CHANNELS 3 Zrotation Xrotation Yrotation
      JOINT right_tibia_foot
      {
        OFFSET 3.006224 -47.83518 -5
        CHANNELS 3 Zrotation Xrotation Yrotation
        End Site
        {
          OFFSET 0 -5 15
        }
      }
    }
  }
  JOINT pelvis_left_femur
  {
    OFFSET 10.78128 -3.44521 -0.5502486
    CHANNELS 3 Zrotation Xrotation Yrotation
    JOINT left_femur_tibia
    {
      OFFSET 0.8047443 -44.0398 -0.1307829
      CHANNELS 3 Zrotation Xrotation Yrotation
      JOINT left_tibia_foot
      {
        OFFSET -4.370144 -48.10324 -4.275266
        CHANNELS 3 Zrotation Xrotation Yrotation
        End Site
        {
          OFFSET 0 -5 15
        }
      }
    }
  }
  JOINT pelvis_spine1
  {
    OFFSET 0 6.468898 -3.129235
    CHANNELS 3 Zrotation Xrotation Yrotation
    JOINT spine1
    {
      OFFSET 0 23.15396 4.99043
      CHANNELS 3 Zrotation Xrotation Yrotation
      JOINT spine2
      {
        OFFSET 0 20.79997 -5.064912
        CHANNELS 3 Zrotation Xrotation Yrotation
        JOINT neck
        {
          OFFSET 0 14.38658 9.616178
          CHANNELS 3 Zrotation Xrotation Yrotation
          End Site
          {
            OFFSET 0 20 0
          }
        }
      }
      JOINT right_manubrium
      {
        OFFSET -5.722621 16.35077 3.967754
        CHANNELS 3 Zrotation Xrotation Yrotation
        JOINT right_clavicle
        {
          OFFSET -13.16364 1.694482 -4.693211
          CHANNELS 3 Zrotation Xrotation Yrotation
          JOINT right_humerus
          {
            OFFSET -28.5034 -0.3100689 -2.792744
            CHANNELS 3 Zrotation Xrotation Yrotation
            JOINT right_radius
            {
              OFFSET -25.15693 0.02248979 -1.271978
              CHANNELS 3 Zrotation Xrotation Yrotation
              End Site
              {
                OFFSET -15 0 0
              }
            }
          }
        }
      }
      JOINT left_manubrium
      {
        OFFSET 5.722621 16.35077 3.967754
        CHANNELS 3 Zrotation Xrotation Yrotation
        JOINT left_clavicle
        {
          OFFSET 13.16364 1.694482 -4.693211
          CHANNELS 3 Zrotation Xrotation Yrotation
          JOINT left_humerus
          {
            OFFSET 29.39168 -1.063119 -2.237045
            CHANNELS 3 Zrotation Xrotation Yrotation
            JOINT left_radius
            {
              OFFSET 24.59957 -0.9528479 0.9047498
              CHANNELS 3 Zrotation Xrotation Yrotation
              End Site
              {
                OFFSET 15 -0 -0
              }
            }
          }
        }
      }
    }
  }
}
MOTION
Frames: 23
Frame Time: 0.0416666666667
-972.7016 111.9387 -315.3789 6.923653 2.111263 105.5968 2.616861 13.84277 -1.325454 -0 20.63736 -0 -12.65393 -10.33128 1.974827 1.893638 -17.11553 -5.667404 -0 12.04479 -0 0.8660065 -0.3180536 16.41306 -0.4765634 -2.709821 7.535599 -0.4310599 13.58263 -3.952926 -0.152207 20.36845 6.51646 6.259049 -14.62748 3.632922 4.884285 -25.72181 12.58226 80.19928 28.44179 -6.078709 -0 0 27.31693 -23.38183 15.76187 11.47763 5.046117 -22.95329 -7.570396 -96.15845 6.848065 33.73416 -0 0 1.130604 12.7007 13.06563 -4.391942
-967.398 111.9218 -318.3842 6.94279 2.047165 105.0694 2.616861 13.84277 -1.325454 -0 20.63736 -0 -12.65393 -10.33128 1.974827 1.893638 -17.11553 -5.667404 -0 12.04479 -0 0.8660065 -0.3180536 16.41306 -0.4765634 -2.709821 7.535599 -0.4310599 13.58263 -3.952926 -0.152207 20.36845 6.51646 6.259049 -14.62748 3.632922 4.884285 -25.72181 12.58226 80.19928 28.44179 -6.078709 -0 0 27.31693 -23.38183 15.76187 11.47763 5.046117 -22.95329 -7.570396 -96.15845 6.848065 33.73416 -0 0 1.130604 12.7007 13.06563 -4.391942
-962.0667 111.905 -321.3402 6.961335 1.982893 104.5419 2.616861 13.84277 -1.325454 -0 20.63736 -0 -12.65393 -10.33128 1.974827 1.893638 -17.11553 -5.667404 -0 12.04479 -0 0.8660065 -0.3180536 16.41306 -0.4765634 -2.709821 7.535599 -0.4310599 13.58263 -3.952926 -0.152207 20.36845 6.51646 6.259049 -14.62748 3.632922 4.884285 -25.72181 12.58226 80.19928 28.44179 -6.078709 -0 0 27.31693 -23.38183 15.76187 11.47763 5.046117 -22.95329 -7.570396 -96.15845 6.848065 33.73416 -0 0 1.130604 12.7007 13.06563 -4.391942
-956.7082 111.8881 -324.2466 6.979287 1.918453 104.0146 2.616861 13.84277 -1.325454 -0 20.63736 -0 -12.65393 -10.33128 1.974827 1.893638 -17.11553 -5.667404 -0 12.04479 -0 0.8660065 -0.3180536 16.41306 -0.4765634 -2.709821 7.535599 -0.4310599 13.58263 -3.952926 -0.152207 20.36845 6.51646 6.259049 -14.62748 3.632922 4.884285 -25.72181 12.58226 80.19928 28.44179 -6.078709 -0 0 27.31693 -23.38183 15.76187 11.47763 5.046117 -22.95329 -7.570396 -96.15845 6.848065 33.73416 -0 0 1.130604 12.7007 13.06563 -4.391942
-951.3231 111.8712 -327.1033 6.996644 1.853851 103.4872 2.616861 13.84277 -1.325454 -0 20.63736 -0 -12.65393 -10.33128 1.974827 1.893638 -17.11553 -5.667404 -0 12.04479 -0 0.8660065 -0.3180536 16.41306 -0.4765634 -2.709821 7.535599 -0.4310599 13.58263 -3.952926 -0.152207 20.36845 6.51646 6.259049 -14.62748 3.632922 4.884285 -25.72181 12.58226 80.19928 28.44179 -6.078709 -0 0 27.31693 -23.38183 15.76187 11.47763 5.046117 -22.95329 -7.570396 -96.15845 6.848065 33.73416 -0 0 1.130604 12.7007 13.06563 -4.391942
-945.9117 111.8543 -329.91 7.013404 1.789093 102.9599 2.616861 13.84277 -1.325454 -0 20.63736 -0 -12.65393 -10.33128 1.974827 1.893638 -17.11553 -5.667404 -0 12.04479 -0 0.8660065 -0.3180536 16.41306 -0.4765634 -2.709821 7.535599 -0.4310599 13.58263 -3.952926 -0.152207 20.36845 6.51646 6.259049 -14.62748 3.632922 4.884285 -25.72181 12.58226 80.19928 28.44179 -6.078709 -0 0 27.31693 -23.38183 15.76187 11.47763 5.046117 -22.95329 -7.570396 -96.15845 6.848065 33.73416 -0 0 1.130604 12.7007 13.06563 -4.391942
-940.4746 111.8374 -332.6664 7.029567 1.724182 102.4327 2.616861 13.84277 -1.325454 -0 20.63736 -0 -12.65393 -10.33128 1.974827 1.893638 -17.11553 -5.667404 -0 12.04479 -0 0.8660065 -0.3180536 16.41306 -0.4765634 -2.709821 7.535599 -0.4310599 13.58263 -3.952926 -0.152207 20.36845 6.51646 6.259049 -14.62748 3.632922 4.884285 -25.72181 12.58226 80.19928 28.44179 -6.078709 -0 0 27.31693 -23.38183 15.76187 11.47763 5.046117 -22.95329 -7.570396 -96.15845 6.848065 33.73416 -0 0 1.130604 12.7007 13.06563 -4.391942
-935.0121 111.8205 -335.3722 7.045131 1.659126 101.9054 2.616861 13.84277 -1.325454 -0 20.63736 -0 -12.65393 -10.33128 1.974827 1.893638 -17.11553 -5.667404 -0 12.04479 -0 0.8660065 -0.3180536 16.41306 -0.4765634 -2.709821 7.535599 -0.4310599 13.58263 -3.952926 -0.152207 20.36845 6.51646 6.259049 -14.62748 3.632922 4.884285 -25.72181 12.58226 80.19928 28.44179 -6.078709 -0 0 27.31693 -23.38183 15.76187 11.47763 5.046117 -22.95329 -7.570396 -96.15845 6.848065 33.73416 -0 0 1.130604 12.7007 13.06563 -4.391942
-929.5248 111.8036 -338.0274 7.060095 1.59393 101.3782 2.616861 13.84277 -1.325454 -0 20.63736 -0 -12.65393 -10.33128 1.974827 1.893638 -17.11553 -5.667404 -0 12.04479 -0 0.8660065 -0.3180536 16.41306 -0.4765634 -2.709821 7.535599 -0.4310599 13.58263 -3.952926 -0.152207 20.36845 6.51646 6.259049 -14.62748 3.632922 4.884285 -25.72181 12.58226 80.19928 28.44179 -6.078709 -0 0 27.31693 -23.38183 15.76187 11.47763 5.046117 -22.95329 -7.570396 -96.15845 6.848065 33.73416 -0 0 1.130604 12.7007 13.06563 -4.391942
-924.0131 111.7867 -340.6315 7.074458 1.528598 100.8511 2.616861 13.84277 -1.325454 -0 20.63736 -0 -12.65393 -10.33128 1.974827 1.893638 -17.11553 -5.667404 -0 12.04479 -0 0.8660065 -0.3180536 16.41306 -0.4765634 -2.709821 7.535599 -0.4310599 13.58263 -3.952926 -0.152207 20.36845 6.51646 6.259049 -14.62748 3.632922 4.884285 -25.72181 12.58226 80.19928 28.44179 -6.078709 -0 0 27.31693 -23.38183 15.76187 11.47763 5.046117 -22.95329 -7.570396 -96.15845 6.848065 33.73416 -0 0 1.130604 12.7007 13.06563 -4.391942
-918.4775 111.7698 -343.1845 7.088219 1.463137 100.324 2.616861 13.84277 -1.325454 -0 20.63736 -0 -12.65393 -10.33128 1.974827 1.893638 -17.11553 -5.667404 -0 12.04479 -0 0.8660065 -0.3180536 16.41306 -0.4765634 -2.709821 7.535599 -0.4310599 13.58263 -3.952926 -0.152207 20.36845 6.51646 6.259049 -14.62748 3.632922 4.884285 -25.72181 12.58226 80.19928 28.44179 -6.078709 -0 0 27.31693 -23.38183 15.76187 11.47763 5.046117 -22.95329 -7.570396 -96.15845 6.848065 33.73416 -0 0 1.130604 12.7007 13.06563 -4.391942
-912.9185 111.753 -345.6861 7.101376 1.397553 99.79687 2.616861 13.84277 -1.325454 -0 20.63736 -0 -12.65393 -10.33128 1.974827 1.893638 -17.11553 -5.667404 -0 12.04479 -0 0.8660065 -0.3180536 16.41306 -0.4765634 -2.709821 7.535599 -0.4310599 13.58263 -3.952926 -0.152207 20.36845 6.51646 6.259049 -14.62748 3.632922 4.884285 -25.72181 12.58226 80.19928 28.44179 -6.078709 -0 0 27.31693 -23.38183 15.76187 11.47763 5.046117 -22.95329 -7.570396 -96.15845 6.848065 33.73416 -0 0 1.130604 12.7007 13.06563 -4.391942
-907.3365 111.7361 -348.136 7.113929 1.33185 99.2698 2.616861 13.84277 -1.325454 -0 20.63736 -0 -12.65393 -10.33128 1.974827 1.893638 -17.11553 -5.667404 -0 12.04479 -0 0.8660065 -0.3180536 16.41306 -0.4765634 -2.709821 7.535599 -0.4310599 13.58263 -3.952926 -0.152207 20.36845 6.51646 6.259049 -14.62748 3.632922 4.884285 -25.72181 12.58226 80.19928 28.44179 -6.078709 -0 0 27.31693 -23.38183 15.76187 11.47763 5.046117 -22.95329 -7.570396 -96.15845 6.848065 33.73416 -0 0 1.130604 12.7007 13.06563 -4.391942
-901.7321 111.7192 -350.5341 7.125876 1.266034 98.74277 2.616861 13.84277 -1.325454 -0 20.63736 -0 -12.65393 -10.33128 1.974827 1.893638 -17.11553 -5.667404 -0 12.04479 -0 0.8660065 -0.3180536 16.41306 -0.4765634 -2.709821 7.535599 -0.4310599 13.58263 -3.952926 -0.152207 20.36845 6.51646 6.259049 -14.62748 3.632922 4.884285 -25.72181 12.58226 80.19928 28.44179 -6.078709 -0 0 27.31693 -23.38183 15.76187 11.47763 5.046117 -22.95329 -7.570396 -96.15845 6.848065 33.73416 -0 0 1.130604 12.7007 13.06563 -4.391942
-896.1057 111.7023 -352.8802 7.137218 1.200112 98.21575 2.616861 13.84277 -1.325454 -0 20.63736 -0 -12.65393 -10.33128 1.974827 1.893638 -17.11553 -5.667404 -0 12.04479 -0 0.8660065 -0.3180536 16.41306 -0.4765634 -2.709821 7.535599 -0.4310599 13.58263 -3.952926 -0.152207 20.36845 6.51646 6.259049 -14.62748 3.632922 4.884285 -25.72181 12.58226 80.19928 28.44179 -6.078709 -0 0 27.31693 -23.38183 15.76187 11.47763 5.046117 -22.95329 -7.570396 -96.15845 6.848065 33.73416 -0 0 1.130604 12.7007 13.06563 -4.391942
-890.4578 111.6854 -355.174 7.147951 1.134088 97.68877 2.616861 13.84277 -1.325454 -0 20.63736 -0 -12.65393 -10.33128 1.974827 1.893638 -17.11553 -5.667404 -0 12.04479 -0 0.8660065 -0.3180536 16.41306 -0.4765634 -2.709821 7.535599 -0.4310599 13.58263 -3.952926 -0.152207 20.36845 6.51646 6.259049 -14.62748 3.632922 4.884285 -25.72181 12.58226 80.19928 28.44179 -6.078709 -0 0 27.31693 -23.38183 15.76187 11.47763 5.046117 -22.95329 -7.570396 -96.15845 6.848065 33.73416 -0 0 1.130604 12.7007 13.06563 -4.391942
-884.7889 111.6685 -357.4154 7.158077 1.067968 97.16181 2.616861 13.84277 -1.325454 -0 20.63736 -0 -12.65393 -10.33128 1.974827 1.893638 -17.11553 -5.667404 -0 12.04479 -0 0.8660065 -0.3180536 16.41306 -0.4765634 -2.709821 7.535599 -0.4310599 13.58263 -3.952926 -0.152207 20.36845 6.51646 6.259049 -14.62748 3.632922 4.884285 -25.72181 12.58226 80.19928 28.44179 -6.078709 -0 0 27.31693 -23.38183 15.76187 11.47763 5.046117 -22.95329 -7.570396 -96.15845 6.848065 33.73416 -0 0 1.130604 12.7007 13.06563 -4.391942
-879.0994 111.6516 -359.6041 7.167594 1.001758 96.63487 2.616861 13.84277 -1.325454 -0 20.63736 -0 -12.65393 -10.33128 1.974827 1.893638 -17.11553 -5.667404 -0 12.04479 -0 0.8660065 -0.3180536 16.41306 -0.4765634 -2.709821 7.535599 -0.4310599 13.58263 -3.952926 -0.152207 20.36845 6.51646 6.259049 -14.62748 3.632922 4.884285 -25.72181 12.58226 80.19928 28.44179 -6.078709 -0 0 27.31693 -23.38183 15.76187 11.47763 5.046117 -22.95329 -7.570396 -96.15845 6.848065 33.73416 -0 0 1.130604 12.7007 13.06563 -4.391942
-873.39 111.6347 -361.7401 7.176502 0.9354627 96.10795 2.616861 13.84277 -1.325454 -0 20.63736 -0 -12.65393 -10.33128 1.974827 1.893638 -17.11553 -5.667404 -0 12.04479 -0 0.8660065 -0.3180536 16.41306 -0.4765634 -2.709821 7.535599 -0.4310599 13.58263 -3.952926 -0.152207 20.36845 6.51646 6.259049 -14.62748 3.632922 4.884285 -25.72181 12.58226 80.19928 28.44179 -6.078709 -0 0 27.31693 -23.38183 15.76187 11.47763 5.046117 -22.95329 -7.570396 -96.15845 6.848065 33.73416 -0 0 1.130604 12.7007 13.06563 -4.391942
-867.6609 111.6179 -363.823 7.184799 0.8690887 95.58106 2.616861 13.84277 -1.325454 -0 20.63736 -0 -12.65393 -10.33128 1.974827 1.893638 -17.11553 -5.667404 -0 12.04479 -0 0.8660065 -0.3180536 16.41306 -0.4765634 -2.709821 7.535599 -0.4310599 13.58263 -3.952926 -0.152207 20.36845 6.51646 6.259049 -14.62748 3.632922 4.884285 -25.72181 12.58226 80.19928 28.44179 -6.078709 -0 0 27.31693 -23.38183 15.76187 11.47763 5.046117 -22.95329 -7.570396 -96.15845 6.848065 33.73416 -0 0 1.130604 12.7007 13.06563 -4.391942
-861.9128 111.601 -365.8527 7.192485 0.8026411 95.05418 2.616861 13.84277 -1.325454 -0 20.63736 -0 -12.65393 -10.33128 1.974827 1.893638 -17.11553 -5.667404 -0 12.04479 -0 0.8660065 -0.3180536 16.41306 -0.4765634 -2.709821 7.535599 -0.4310599 13.58263 -3.952926 -0.152207 20.36845 6.51646 6.259049 -14.62748 3.632922 4.884285 -25.72181 12.58226 80.19928 28.44179 -6.078709 -0 0 27.31693 -23.38183 15.76187 11.47763 5.046117 -22.95329 -7.570396 -96.15845 6.848065 33.73416 -0 0 1.130604 12.7007 13.06563 -4.391942
-856.1462 111.5841 -367.8291 7.19956 0.7361257 94.52732 2.616861 13.84277 -1.325454 -0 20.63736 -0 -12.65393 -10.33128 1.974827 1.893638 -17.11553 -5.667404 -0 12.04479 -0 0.8660065 -0.3180536 16.41306 -0.4765634 -2.709821 7.535599 -0.4310599 13.58263 -3.952926 -0.152207 20.36845 6.51646 6.259049 -14.62748 3.632922 4.884285 -25.72181 12.58226 80.19928 28.44179 -6.078709 -0 0 27.31693 -23.38183 15.76187 11.47763 5.046117 -22.95329 -7.570396 -96.15845 6.848065 33.73416 -0 0 1.130604 12.7007 13.06563 -4.391942
-850.3615 111.5672 -369.7519 7.206022 0.6695481 94.00047 2.616861 13.84277 -1.325454 -0 20.63736 -0 -12.65393 -10.33128 1.974827 1.893638 -17.11553 -5.667404 -0 12.04479 -0 0.8660065 -0.3180536 16.41306 -0.4765634 -2.709821 7.535599 -0.4310599 13.58263 -3.952926 -0.152207 20.36845 6.51646 6.259049 -14.62748 3.632922 4.884285 -25.72181 12.58226 80.19928 28.44179 -6.078709 -0 0 27.31693 -23.38183 15.76187 11.47763 5.046117 -22.95329 -7.570396 -96.15845 6.848065 33.73416 -0 0 1.130604 12.7007 13.06563 -4.391942
